<svg width="180" height="58" viewBox="0 0 180 58" fill="none" xmlns="http://www.w3.org/2000/svg">
<path fill-rule="evenodd" clip-rule="evenodd" d="M39.0469 2.46354C40.7343 1.91693 42.4778 1.47106 44.2301 1.1383C44.543 1.07908 44.7472 0.778432 44.688 0.466831C44.6354 0.19167 44.3946 0 44.1231 0C44.0874 0 44.051 0.00338915 44.0153 0.0102851C42.2151 0.351971 40.4239 0.809869 38.6911 1.37128C38.3887 1.46924 38.2234 1.79308 38.3214 2.09481C38.4195 2.39641 38.7445 2.56143 39.0469 2.46354Z" fill="#1B1918"/>
<path fill-rule="evenodd" clip-rule="evenodd" d="M24.3878 11.0288C26.7902 8.78947 29.4633 6.81973 32.3326 5.17465C33.6051 4.44497 34.9246 3.77512 36.2546 3.18376C36.5448 3.0547 36.6753 2.71518 36.5464 2.42562C36.4508 2.21191 36.2401 2.08507 36.0204 2.08507C35.9417 2.08514 35.8624 2.1011 35.7862 2.13503C34.4204 2.74228 33.0652 3.43005 31.7587 4.17907C28.8133 5.86823 26.0689 7.89049 23.6017 10.1897C23.369 10.4062 23.3569 10.7695 23.5741 11.0013C23.7913 11.2331 24.1552 11.2454 24.3878 11.0288Z" fill="#1B1918"/>
<path fill-rule="evenodd" clip-rule="evenodd" d="M33.9559 6.39367C34.0938 6.67952 34.4375 6.80013 34.7236 6.66194C39.5582 4.34146 44.7683 3.01616 50.2093 2.72308C50.527 2.70591 50.7701 2.43528 50.7531 2.11875C50.7369 1.81255 50.4824 1.57559 50.1792 1.57559C50.1687 1.57559 50.1582 1.57579 50.1476 1.57627C44.5535 1.87752 39.1968 3.24054 34.2251 5.62728C33.9382 5.76479 33.8174 6.10803 33.9559 6.39367Z" fill="#1B1918"/>
<path fill-rule="evenodd" clip-rule="evenodd" d="M21.7724 16.4535C24.5394 13.3234 27.7507 10.6476 31.3154 8.50065C31.5876 8.3369 31.6752 7.98386 31.5107 7.71248C31.4028 7.53393 31.2124 7.43496 31.0179 7.43496C30.9165 7.43496 30.8136 7.46166 30.7204 7.51771C27.0544 9.72515 23.7541 12.4759 20.9092 15.6942C20.6984 15.932 20.722 16.2947 20.9602 16.5044C21.1984 16.7144 21.5624 16.6916 21.7724 16.4535Z" fill="#1B1918"/>
<path fill-rule="evenodd" clip-rule="evenodd" d="M42.9511 5.52533C43.0224 5.83436 43.3321 6.02697 43.6416 5.95517C46.5157 5.29235 49.5171 4.95607 52.5614 4.95607C53.085 4.95614 53.6158 4.96649 54.1865 4.98779C54.5006 5.00374 54.7714 4.75245 54.7832 4.43564C54.7952 4.11883 54.5474 3.85232 54.2296 3.84036C53.645 3.81845 53.0995 3.8077 52.5614 3.8077C49.4304 3.8077 46.3415 4.15385 43.3823 4.83654C43.0727 4.90794 42.8798 5.2163 42.9511 5.52533Z" fill="#1B1918"/>
<path fill-rule="evenodd" clip-rule="evenodd" d="M20.2858 21.1142C20.5436 21.2997 20.9035 21.2418 21.0891 20.9845C24.6577 16.0497 29.1796 12.1292 34.5282 9.33202C36.4556 8.32359 38.4722 7.47721 40.5212 6.81656C40.8235 6.719 40.9896 6.39536 40.8916 6.09363C40.8129 5.85058 40.5869 5.69597 40.3445 5.69597C40.2853 5.69597 40.2254 5.70489 40.167 5.72388C38.0556 6.40455 35.9783 7.27642 33.9933 8.31514C28.485 11.1958 23.8295 15.2324 20.1554 20.3127C19.9698 20.57 20.0273 20.9287 20.2858 21.1142Z" fill="#1B1918"/>
<path fill-rule="evenodd" clip-rule="evenodd" d="M20.3037 25.3682C20.5768 25.5299 20.9302 25.44 21.0923 25.1673C24.6002 19.2684 29.6157 14.4955 35.5965 11.3645C40.8113 8.63613 46.519 7.25269 52.5614 7.25269C54.0632 7.25276 55.5815 7.34186 57.0741 7.5175C57.3911 7.55482 57.676 7.32929 57.7133 7.01451C57.7505 6.69973 57.5247 6.41429 57.209 6.37711C55.6719 6.19599 54.1086 6.10445 52.5614 6.10445C46.3309 6.10445 40.4434 7.53197 35.0616 10.3478C28.8919 13.5777 23.7192 18.4996 20.1019 24.5815C19.9397 24.8543 20.0297 25.2064 20.3037 25.3682Z" fill="#1B1918"/>
<path fill-rule="evenodd" clip-rule="evenodd" d="M59.744 47.1647C59.7028 47.1647 59.6606 47.1694 59.6185 47.1785C58.5199 47.422 57.3962 47.5722 56.2786 47.6248C55.9871 47.6385 55.7521 47.8674 55.7315 48.1578C55.6301 49.5889 55.3734 51.0091 54.9683 52.3788C54.8785 52.6828 55.0528 53.0021 55.3578 53.0918C55.6623 53.1809 55.9828 53.0076 56.0727 52.7035C56.4536 51.4153 56.7105 50.0848 56.8383 48.7417C57.854 48.6689 58.871 48.5204 59.8684 48.2994C60.1787 48.2307 60.3744 47.924 60.3054 47.6143C60.2458 47.3469 60.0079 47.1647 59.744 47.1647Z" fill="#1B1918"/>
<path fill-rule="evenodd" clip-rule="evenodd" d="M36.1322 12.3824C29.0028 16.1133 23.4485 22.0793 20.0711 29.6356C19.9422 29.9253 20.0727 30.2646 20.3629 30.3937C20.6538 30.523 20.9934 30.393 21.1231 30.1032C24.3935 22.7851 29.7689 17.0089 36.6672 13.3992C41.5497 10.8446 46.8975 9.54923 52.5614 9.54923C54.3449 9.5493 56.1502 9.68228 57.9292 9.94514C58.3404 10.0047 58.7691 10.084 59.2036 10.1807C59.5134 10.2499 59.8214 10.0551 59.8908 9.74556C59.9601 9.43613 59.7648 9.12926 59.4546 9.0601C58.9919 8.95706 58.5345 8.87249 58.0963 8.809C56.2631 8.53824 54.4011 8.40092 52.5614 8.40092C46.7094 8.40092 41.1817 9.74049 36.1322 12.3824Z" fill="#1B1918"/>
<path fill-rule="evenodd" clip-rule="evenodd" d="M54.0625 46.798C54.0551 46.7977 54.0486 46.7976 54.0422 46.7976C53.7334 46.7976 53.4781 47.0419 53.4667 47.3519C53.3791 49.8933 52.7607 52.3351 51.6293 54.6101C51.4882 54.8942 51.6041 55.2387 51.8894 55.3796C52.1739 55.5206 52.5192 55.4046 52.6603 55.1205C53.8655 52.6978 54.5239 50.0974 54.6175 47.3917C54.6285 47.0748 54.3798 46.8089 54.0625 46.798Z" fill="#1B1918"/>
<path fill-rule="evenodd" clip-rule="evenodd" d="M61.2586 44.3538C61.196 44.3538 61.1325 44.364 61.0699 44.3856C59.2189 45.026 57.286 45.3506 55.3248 45.3506C55.0068 45.3506 54.7491 45.6076 54.7491 45.9247C54.7491 46.2418 55.0068 46.4989 55.3248 46.4989C57.4148 46.4989 59.4746 46.1529 61.4472 45.4703C61.7475 45.3665 61.9067 45.0394 61.8025 44.7397C61.7199 44.5026 61.4971 44.3537 61.2586 44.3538Z" fill="#1B1918"/>
<path fill-rule="evenodd" clip-rule="evenodd" d="M52.5613 10.6975C47.0856 10.6975 41.9169 11.9481 37.2005 14.415C28.9745 18.7224 22.8528 26.5003 20.2899 35.8524C20.1611 36.3135 19.7777 37.1875 20.3783 37.4476C20.7113 37.5914 21.0842 37.391 21.1653 37.059C23.4897 27.6115 29.529 19.7287 37.7354 15.4317C42.2849 13.0523 47.2736 11.8458 52.5614 11.8458C54.2219 11.8459 55.9144 11.9704 57.5915 12.2163C58.7003 12.38 59.7814 12.6579 60.8048 13.0423C61.1022 13.1536 61.4343 13.0042 61.5464 12.7072C61.6583 12.4105 61.508 12.0794 61.2105 11.9675C60.1107 11.5547 58.9498 11.2561 57.7594 11.0802C56.0267 10.8263 54.2779 10.6975 52.5613 10.6975Z" fill="#1B1918"/>
<path fill-rule="evenodd" clip-rule="evenodd" d="M52.3222 46.2956C52.3142 45.9838 52.058 45.7364 51.7468 45.7364C51.7421 45.7364 51.7362 45.7365 51.7314 45.7366C51.4137 45.7448 51.1624 46.0084 51.1713 46.3255C51.2621 49.8446 50.1298 53.3264 47.9828 56.1288C47.7898 56.3809 47.8377 56.7411 48.0906 56.9337C48.3434 57.1261 48.7041 57.0782 48.897 56.826C51.2037 53.816 52.4203 50.0762 52.3222 46.2956Z" fill="#1B1918"/>
<path fill-rule="evenodd" clip-rule="evenodd" d="M62.8355 41.7971C62.7023 41.4846 62.3358 41.3642 62.0524 41.5041C59.9306 42.5326 57.6672 43.0539 55.3248 43.0539C54.5615 43.054 53.7958 42.9981 53.0485 42.8879C52.734 42.8426 52.4414 43.0583 52.3952 43.3718C52.3482 43.6856 52.5662 43.9775 52.8807 44.0238C53.6831 44.1422 54.5053 44.2022 55.3248 44.2022C57.8316 44.2023 60.2538 43.6469 62.5248 42.5518C62.7933 42.4561 62.9665 42.1048 62.8355 41.7971Z" fill="#1B1918"/>
<path fill-rule="evenodd" clip-rule="evenodd" d="M52.5613 12.9941C47.4632 12.9941 42.6553 14.1568 38.2712 16.4496C28.4444 21.5934 22.1063 31.741 21.3168 43.5946C21.2957 43.9111 21.5357 44.1845 21.8526 44.2056C22.1719 44.2272 22.4443 43.9871 22.4654 43.6709C23.2288 32.219 29.3377 22.4229 38.8062 17.4664C43.0241 15.2607 47.6513 14.1423 52.5614 14.1423C54.1143 14.1423 55.6936 14.2585 57.2551 14.4877C58.9175 14.7336 60.4849 15.274 61.9133 16.0937C62.1886 16.2519 62.5408 16.1574 62.6994 15.8825C62.8579 15.6075 62.763 15.2565 62.4875 15.0984C60.9334 14.2067 59.2297 13.6189 57.4232 13.3516C55.8057 13.1144 54.1701 12.9941 52.5613 12.9941Z" fill="#1B1918"/>
<path fill-rule="evenodd" clip-rule="evenodd" d="M62.9089 38.4653C62.7997 38.4653 62.6894 38.4962 62.5916 38.561C59.8767 40.3549 56.6279 41.0855 53.3856 40.6166C53.1125 40.576 52.8369 40.5554 52.5662 40.5554C51.9867 40.5554 51.4834 40.6582 51.1105 40.8529C49.941 41.4651 48.7949 43.5617 48.8687 46.3849C48.9732 50.4731 47.2103 54.3148 44.0332 56.9254C43.7875 57.127 43.7527 57.4889 43.9545 57.7335C44.1571 57.9783 44.5194 58.0133 44.765 57.8117C48.2178 54.975 50.1331 50.7992 50.0196 46.3553C49.9547 43.8819 50.9314 42.2433 51.6455 41.8699C51.7638 41.8079 52.0418 41.7036 52.5662 41.7036C52.7802 41.7036 52.9983 41.7199 53.2179 41.7528C56.7507 42.2636 60.2775 41.4674 63.2275 39.5181C63.4925 39.3432 63.565 38.9868 63.3894 38.7224C63.2786 38.5557 63.0956 38.4652 62.9089 38.4653Z" fill="#1B1918"/>
<path fill-rule="evenodd" clip-rule="evenodd" d="M52.5613 15.2907C47.8385 15.2907 43.3912 16.3643 39.3419 18.4821C29.2777 23.7492 23.2256 34.6926 23.5466 47.0409C23.5554 47.4134 23.5839 47.7938 23.6317 48.2033C23.6544 48.4806 23.8959 48.7277 24.2055 48.7277C24.5232 48.7277 24.781 48.4695 24.781 48.1524C24.7809 48.13 24.7793 48.1074 24.7769 48.0851C24.7315 47.7052 24.7064 47.3545 24.6975 47.0121C24.3878 35.1036 30.2041 24.5612 39.8768 19.4989C43.7592 17.4685 48.0265 16.4389 52.5614 16.4389C54.0114 16.4389 55.4764 16.5474 56.9174 16.7613C59.0122 17.0688 60.9505 17.9593 62.5228 19.337C62.7613 19.546 63.1253 19.5224 63.3352 19.2844C63.545 19.0463 63.5214 18.6834 63.2825 18.4742C61.5432 16.9502 59.4001 15.9649 57.0859 15.6254C55.5899 15.4033 54.0681 15.2906 52.5613 15.2907Z" fill="#1B1918"/>
<path fill-rule="evenodd" clip-rule="evenodd" d="M63.0799 35.4317C62.9411 35.4317 62.8018 35.4815 62.6914 35.5823C60.6578 37.4386 58.0417 38.4608 55.3248 38.4608C54.7874 38.4609 54.2481 38.4212 53.7212 38.3429C53.3411 38.2872 52.9528 38.2587 52.5662 38.2587C51.5984 38.2588 50.7482 38.4479 50.0407 38.8204C47.8725 39.9531 46.4777 43.0172 46.5684 46.4445C46.6851 51.0215 43.8889 55.2196 39.611 56.8914C39.3151 57.007 39.1692 57.3401 39.2851 57.6354C39.401 57.9307 39.735 58.0756 40.0316 57.9605C44.7585 56.1133 47.8482 51.4735 47.7193 46.4148C47.6399 43.4148 48.7868 40.7715 50.5756 39.8369C51.1179 39.5516 51.7874 39.407 52.5662 39.407C52.8969 39.4071 53.2285 39.4313 53.5519 39.4788C54.1343 39.5653 54.7309 39.609 55.3248 39.609C58.3302 39.6091 61.2224 38.4798 63.4686 36.4293C63.7032 36.2154 63.7192 35.852 63.5046 35.6181C63.391 35.4944 63.2357 35.4316 63.0799 35.4317Z" fill="#1B1918"/>
<path fill-rule="evenodd" clip-rule="evenodd" d="M56.749 17.8967C55.3532 17.6914 53.9441 17.5872 52.5614 17.5872C48.2154 17.5873 44.1272 18.5729 40.4101 20.5168C31.1305 25.3734 25.551 35.5142 25.8492 46.9821C25.918 49.6449 27.022 52.0988 28.9422 53.8772L29.0216 53.9543L29.0378 53.962C29.8888 54.7345 30.8517 55.3412 31.9094 55.7678C32.0497 55.8246 32.1931 55.8772 32.3366 55.9277L32.4338 55.9745H32.4759C33.4834 56.3152 34.5452 56.4889 35.6354 56.4889C35.7132 56.489 35.7918 56.4889 35.8875 56.4862C41.2814 56.3447 45.5561 51.8534 45.4167 46.4744C45.3137 42.5596 46.9193 39.1557 49.5065 37.8022C50.1931 37.4426 50.9784 37.2207 51.8408 37.1424C52.1569 37.1137 52.3904 36.8344 52.362 36.5186C52.3327 36.2029 52.054 35.971 51.7362 35.9988C50.7231 36.0908 49.7927 36.3556 48.9716 36.7856C45.9986 38.3405 44.1515 42.1553 44.2658 46.5042C44.389 51.2504 40.6168 55.2134 35.8583 55.3384C35.7739 55.3405 35.7075 55.3398 35.6354 55.3404C34.649 55.3404 33.6902 55.1808 32.784 54.8667C31.7003 54.339 30.6694 53.7211 29.7186 53.0294C28.0262 51.4502 27.061 49.2934 27.0002 46.9522C26.714 35.925 32.0569 26.185 40.9451 21.5335C44.4951 19.6769 48.4034 18.7353 52.5614 18.7353C53.8882 18.7353 55.2408 18.8352 56.5809 19.0323C58.8626 19.3684 60.8767 20.5695 62.2504 22.4127C62.3718 22.5773 62.4879 22.7455 62.5953 22.9125C62.7668 23.1796 63.123 23.2574 63.3905 23.0863C63.6582 22.9151 63.7363 22.5599 63.5646 22.293C63.4439 22.105 63.3136 21.9162 63.1759 21.7298C61.6173 19.6385 59.335 18.2771 56.749 17.8967Z" fill="#1B1918"/>
<path fill-rule="evenodd" clip-rule="evenodd" d="M63.3914 32C63.2949 31.9383 63.1871 31.9086 63.0806 31.9086C62.8911 31.9087 62.7058 32.0017 62.5958 32.1723C61.0081 34.6346 58.222 36.1642 55.3248 36.1642C54.8962 36.1643 54.4701 36.1332 54.0584 36.0718C53.7439 36.0262 53.4505 36.2415 53.4035 36.5549C53.3572 36.8686 53.5738 37.1607 53.8882 37.2076C54.3561 37.2772 54.8396 37.3125 55.3248 37.3125C58.6593 37.3125 61.7396 35.6231 63.5642 32.7934C63.7361 32.5267 63.6588 32.1714 63.3914 32Z" fill="#1B1918"/>
<path fill-rule="evenodd" clip-rule="evenodd" d="M41.963 46.5642C42.053 50.0455 39.2876 52.9513 35.7983 53.0419C35.7391 53.0433 35.6873 53.044 35.6354 53.044C32.1745 53.044 29.3928 50.3421 29.3029 46.8927C29.0386 36.7472 33.9098 27.8093 42.0158 23.5669C45.2302 21.8856 48.7779 21.0332 52.5622 21.0332C53.7844 21.0332 55.0236 21.1244 56.2449 21.3044C57.9176 21.5504 59.3943 22.4316 60.403 23.7855C61.4115 25.1398 61.831 26.8046 61.5843 28.4737C61.1303 31.549 58.4392 33.8682 55.3243 33.8682C55.0148 33.8682 54.7022 33.8452 54.3948 33.7998C53.7852 33.7102 53.1701 33.6647 52.5662 33.6647C50.8496 33.6647 49.2796 34.0306 47.9009 34.7523C44.158 36.711 41.8269 41.3474 41.963 46.5642ZM48.4358 35.7691C49.6475 35.1347 51.0376 34.813 52.5662 34.813C53.1142 34.813 53.6726 34.8542 54.2266 34.9358C54.5892 34.9893 54.9585 35.0164 55.3243 35.0164C59.0058 35.0164 62.1868 32.2756 62.7233 28.641C63.0149 26.6687 62.5191 24.7011 61.3271 23.1009C60.135 21.5005 58.3898 20.4589 56.413 20.1684C55.1362 19.9803 53.8403 19.8848 52.5622 19.8848C48.5898 19.8848 44.8623 20.7815 41.4816 22.5501C32.9834 26.9972 27.8763 36.3361 28.1519 46.9224C28.2581 50.9991 31.5455 54.1922 35.6354 54.1922C35.6962 54.1923 35.7562 54.1916 35.8275 54.1895C39.9514 54.0828 43.2202 50.6486 43.114 46.5343C42.9892 41.7515 45.0779 37.5259 48.4358 35.7691Z" fill="#1B1918"/>
<path fill-rule="evenodd" clip-rule="evenodd" d="M54.5633 32.664C54.8152 32.701 55.0713 32.7199 55.3243 32.7199C57.8724 32.7199 60.074 30.8222 60.4453 28.3059C60.6473 26.9405 60.3041 25.5783 59.4788 24.4705C58.6534 23.3624 57.4451 22.6415 56.0766 22.4403C54.9105 22.2686 53.7277 22.1813 52.5622 22.1813C48.9659 22.1814 45.5982 22.9897 42.5515 24.5838C40.9151 25.4403 39.3905 26.5148 38.0216 27.7776C37.788 27.993 37.7744 28.3561 37.99 28.5889C38.2055 28.8218 38.5703 28.8358 38.8037 28.6206C40.0981 27.4265 41.5392 26.4103 43.0857 25.6006C45.9662 24.0937 49.1547 23.3297 52.5622 23.3297C53.6718 23.3297 54.7977 23.4127 55.9087 23.5761C56.9731 23.7328 57.9128 24.2935 58.5545 25.1551C59.1965 26.017 59.4634 27.0764 59.3065 28.1386C59.0174 30.0957 57.3056 31.5715 55.3243 31.5715C55.1273 31.5716 54.928 31.5568 54.7314 31.5279C54.0105 31.4219 53.2819 31.3681 52.5662 31.3681C50.4727 31.3682 48.5429 31.8224 46.831 32.7186C42.3164 35.0807 39.5024 40.539 39.6612 46.6239C39.7187 48.8393 37.9583 50.6885 35.7383 50.7461C35.7018 50.7468 35.6686 50.7475 35.6354 50.7475C33.4324 50.7476 31.6622 49.028 31.6048 46.833C31.4434 40.6331 33.3595 34.8358 37.0003 30.5089C37.2053 30.2661 37.173 29.9038 36.9298 29.7C36.6857 29.4962 36.3236 29.5279 36.1184 29.7706C32.2968 34.3123 30.2852 40.3824 30.4538 46.8628C30.5275 49.6852 32.8034 51.8958 35.6354 51.8958C35.6775 51.8958 35.7205 51.8953 35.7675 51.8938C38.6229 51.8198 40.8859 49.4424 40.8122 46.5941C40.6646 40.9431 43.2372 35.8956 47.366 33.7353C48.9108 32.9265 50.6607 32.5163 52.5662 32.5163C53.2259 32.5163 53.8979 32.5661 54.5633 32.664Z" fill="#1B1918"/>
<path fill-rule="evenodd" clip-rule="evenodd" d="M37.3593 46.6836C37.3836 47.633 36.6299 48.4256 35.6783 48.4503C34.722 48.4728 33.9309 47.7211 33.9066 46.7732C33.6885 38.3906 37.6155 31.0571 44.1563 27.6344C46.703 26.3019 49.5309 25.6262 52.5622 25.6262C53.5591 25.6263 54.5721 25.7009 55.5723 25.8481C56.0285 25.9152 56.4312 26.1555 56.7062 26.5248C56.9813 26.8942 57.0958 27.3482 57.0285 27.8035C56.9613 28.2588 56.7206 28.6605 56.3505 28.935C56.0498 29.1578 55.6932 29.2749 55.3248 29.2749C55.2397 29.275 55.1539 29.2688 55.0681 29.256C52.7251 28.912 49.2083 28.8805 45.7612 30.685C40.4758 33.4506 37.1778 39.7303 37.3593 46.6836ZM46.2961 31.7018C49.4693 30.0407 52.7267 30.0726 54.9 30.392C55.6614 30.5044 56.4204 30.3141 57.0374 29.8565C57.6542 29.3992 58.0555 28.7295 58.1676 27.9709C58.2797 27.2124 58.0889 26.4555 57.6304 25.84C57.1719 25.2245 56.5005 24.824 55.7402 24.7122C54.6847 24.5568 53.615 24.478 52.5622 24.478C49.3428 24.478 46.335 25.1977 43.6214 26.6176C36.6891 30.2451 32.5263 37.9796 32.7557 46.803C32.7969 48.3831 34.1221 49.6408 35.7075 49.5981C37.2937 49.5571 38.5516 48.2363 38.5103 46.6539C38.3401 40.1347 41.3965 34.2656 46.2961 31.7018Z" fill="#1B1918"/>
<path fill-rule="evenodd" clip-rule="evenodd" d="M36.2968 40.6503C36.2538 40.6406 36.2108 40.6358 36.1687 40.6358C35.9061 40.636 35.6686 40.8168 35.6078 41.0833C35.1929 42.9121 35.0073 44.8165 35.0575 46.7435C35.0656 47.0603 35.3274 47.3057 35.6475 47.3024C35.9661 47.2943 36.2165 47.0306 36.2084 46.7135C36.1605 44.882 36.3365 43.0729 36.7312 41.3371C36.8009 41.0278 36.6064 40.7203 36.2968 40.6503Z" fill="#1B1918"/>
<path fill-rule="evenodd" clip-rule="evenodd" d="M55.2362 28.1201C55.5512 28.1672 55.8433 27.9495 55.8897 27.6359C55.936 27.3221 55.7187 27.0303 55.4042 26.9842C54.5735 26.862 53.6126 26.7748 52.5638 26.7748C50.227 26.7748 47.4502 27.2075 44.6913 28.6513C41.0942 30.5334 38.2137 33.8344 36.5788 37.9466C36.4613 38.2415 36.6055 38.5751 36.9014 38.6919C37.1972 38.8091 37.5312 38.6648 37.6488 38.3699C39.1822 34.513 41.8731 31.4226 45.2262 29.6681C48.9497 27.7195 52.7243 27.7511 55.2362 28.1201Z" fill="#1B1918"/>
<path fill-rule="evenodd" clip-rule="evenodd" d="M8.8195 54.2418H0V3.7574H8.8195V54.2418Z" fill="#1B1918"/>
<path fill-rule="evenodd" clip-rule="evenodd" d="M121.221 28.4453C121.221 35.8859 118.825 42.0459 114.033 46.9242C109.24 51.8026 103.139 54.2418 95.728 54.2418H67.4628L75.941 45.4462H95.728C100.569 45.4462 104.559 43.9429 107.697 40.9372C110.834 37.9314 112.402 34.0133 112.402 29.1847C112.402 24.3063 110.834 20.3149 107.697 17.2105C104.559 14.1061 100.569 12.5538 95.728 12.5538H75.941L67.1958 3.7574H95.728C103.188 3.7574 109.302 6.02461 114.07 10.5581C118.838 15.0917 121.221 21.0543 121.221 28.4453Z" fill="#1B1918"/>
<path fill-rule="evenodd" clip-rule="evenodd" d="M180 54.2418H171.181V24.9366L150.516 43.3283L150.508 43.3196L150.499 43.3283L121.015 15.4758V3.7574L121.017 3.75944L121.015 3.70095L150.508 30.8987L180 3.70095L179.999 3.75944L180 3.7574V54.2418Z" fill="#1B1918"/>
</svg>
