<svg width="65" height="86" viewBox="0 0 65 86" fill="none" xmlns="http://www.w3.org/2000/svg">
<path fill-rule="evenodd" clip-rule="evenodd" d="M28.0678 3.64391C30.5572 2.83541 33.1293 2.1759 35.7144 1.6837C36.176 1.5961 36.4773 1.15141 36.39 0.690506C36.3123 0.283506 35.9572 0 35.5566 0C35.504 0 35.4502 0.00501301 35.3976 0.015213C32.7418 0.520613 30.0993 1.19791 27.5429 2.02831C27.0968 2.17321 26.8529 2.65221 26.9976 3.09851C27.1423 3.54461 27.6218 3.78871 28.0678 3.64391Z" fill="#1B1918"/>
<path fill-rule="evenodd" clip-rule="evenodd" d="M6.44184 16.3131C9.98604 13.0008 13.9295 10.0873 18.1624 7.65401C20.0397 6.57471 21.9863 5.58391 23.9485 4.70921C24.3766 4.51831 24.5691 4.01611 24.379 3.58781C24.2379 3.27171 23.927 3.08411 23.6029 3.08411C23.4869 3.08421 23.3698 3.1078 23.2574 3.158C21.2425 4.0562 19.2433 5.07351 17.3158 6.18141C12.9706 8.67991 8.92194 11.6711 5.28214 15.072C4.93884 15.3922 4.92104 15.9295 5.24144 16.2724C5.56184 16.6153 6.09874 16.6334 6.44184 16.3131Z" fill="#1B1918"/>
<path fill-rule="evenodd" clip-rule="evenodd" d="M20.5573 9.45711C20.7607 9.87991 21.2677 10.0583 21.6898 9.85391C28.8222 6.42161 36.5084 4.4613 44.5353 4.0278C45.004 4.0024 45.3627 3.60211 45.3376 3.13391C45.3137 2.68101 44.9382 2.33051 44.491 2.33051C44.4754 2.33051 44.46 2.33081 44.4444 2.33151C36.1915 2.77711 28.289 4.7932 20.9544 8.3235C20.5311 8.5269 20.353 9.03461 20.5573 9.45711Z" fill="#1B1918"/>
<path fill-rule="evenodd" clip-rule="evenodd" d="M2.58334 24.3369C6.66544 19.7071 11.403 15.7492 16.6618 12.5736C17.0634 12.3314 17.1927 11.8092 16.95 11.4078C16.7908 11.1437 16.5099 10.9973 16.2229 10.9973C16.0734 10.9973 15.9216 11.0368 15.7841 11.1197C10.3758 14.3848 5.50694 18.4536 1.30994 23.2138C0.998942 23.5656 1.03374 24.1021 1.38524 24.4123C1.73664 24.7229 2.27364 24.6891 2.58334 24.3369Z" fill="#1B1918"/>
<path fill-rule="evenodd" clip-rule="evenodd" d="M33.8275 8.17271C33.9328 8.62981 34.3896 8.9147 34.8463 8.8085C39.0863 7.8281 43.5142 7.3307 48.0053 7.3307C48.7777 7.3308 49.5609 7.34611 50.4027 7.37761C50.8662 7.40121 51.2658 7.02951 51.2831 6.56091C51.3009 6.09231 50.9353 5.6981 50.4664 5.6804C49.604 5.648 48.7992 5.63211 48.0053 5.63211C43.3862 5.63211 38.8293 6.1441 34.4637 7.1539C34.0069 7.2595 33.7224 7.71561 33.8275 8.17271Z" fill="#1B1918"/>
<path fill-rule="evenodd" clip-rule="evenodd" d="M0.390347 31.2308C0.770547 31.5052 1.30154 31.4195 1.57534 31.0389C6.84004 23.7397 13.511 17.9407 21.4016 13.8033C24.245 12.3117 27.22 11.0598 30.2428 10.0826C30.6888 9.93831 30.9339 9.45961 30.7892 9.01331C30.6732 8.65381 30.3398 8.42511 29.9822 8.42511C29.8949 8.42511 29.8064 8.4383 29.7203 8.4664C26.6054 9.4732 23.5408 10.7628 20.6124 12.2992C12.4862 16.5601 5.61815 22.5307 0.19785 30.0452C-0.0759504 30.4258 0.00894684 30.9564 0.390347 31.2308Z" fill="#1B1918"/>
<path fill-rule="evenodd" clip-rule="evenodd" d="M0.416642 37.523C0.819642 37.7622 1.34095 37.6292 1.58015 37.2258C6.75515 28.5006 14.1543 21.4408 22.9776 16.8096C30.6708 12.774 39.0912 10.7277 48.0053 10.7277C50.2209 10.7278 52.4608 10.8596 54.6627 11.1194C55.1304 11.1746 55.5507 10.841 55.6057 10.3754C55.6606 9.90981 55.3275 9.4876 54.8618 9.4326C52.5941 9.1647 50.2879 9.02931 48.0053 9.02931C38.8137 9.02931 30.128 11.1408 22.1884 15.3058C13.0865 20.0832 5.45544 27.3634 0.118943 36.3593C-0.120257 36.7629 0.0125415 37.2837 0.416642 37.523Z" fill="#1B1918"/>
<path fill-rule="evenodd" clip-rule="evenodd" d="M58.6016 69.7629C58.5408 69.7629 58.4785 69.7699 58.4164 69.7834C56.7957 70.1436 55.1379 70.3657 53.4892 70.4435C53.0591 70.4638 52.7125 70.8024 52.6821 71.2319C52.5325 73.3487 52.1537 75.4493 51.5562 77.4753C51.4236 77.925 51.6808 78.3973 52.1307 78.5299C52.5799 78.6617 53.0528 78.4054 53.1854 77.9556C53.7474 76.0501 54.1265 74.0822 54.3149 72.0955C55.8134 71.9879 57.3137 71.7682 58.7851 71.4413C59.2428 71.3397 59.5316 70.8861 59.4298 70.428C59.3418 70.0324 58.991 69.7629 58.6016 69.7629Z" fill="#1B1918"/>
<path fill-rule="evenodd" clip-rule="evenodd" d="M23.7679 18.3152C13.2502 23.8337 5.05615 32.6583 0.0735457 43.835C-0.116654 44.2636 0.075942 44.7655 0.504042 44.9564C0.933142 45.1476 1.43424 44.9554 1.62554 44.5267C6.45024 33.7023 14.3803 25.1585 24.5571 19.8192C31.7602 16.0406 39.6496 14.1246 48.0053 14.1246C50.6364 14.1247 53.2997 14.3214 55.9242 14.7102C56.5309 14.7983 57.1633 14.9156 57.8044 15.0587C58.2614 15.161 58.7157 14.8728 58.8182 14.415C58.9204 13.9573 58.6323 13.5034 58.1746 13.4011C57.492 13.2487 56.8172 13.1236 56.1707 13.0297C53.4663 12.6292 50.7193 12.4261 48.0053 12.4261C39.3721 12.4261 31.2173 14.4075 23.7679 18.3152Z" fill="#1B1918"/>
<path fill-rule="evenodd" clip-rule="evenodd" d="M50.2198 69.2206C50.209 69.2201 50.1994 69.22 50.1899 69.22C49.7343 69.22 49.3577 69.5814 49.3409 70.0399C49.2117 73.7989 48.2994 77.4107 46.6302 80.7757C46.4221 81.196 46.5931 81.7055 47.014 81.9139C47.4337 82.1224 47.9431 81.9509 48.1512 81.5306C49.9292 77.9472 50.9005 74.1008 51.0386 70.0987C51.0549 69.63 50.688 69.2367 50.2198 69.2206Z" fill="#1B1918"/>
<path fill-rule="evenodd" clip-rule="evenodd" d="M60.836 65.6052C60.7436 65.6052 60.65 65.6203 60.5576 65.6523C57.8269 66.5995 54.9754 67.0796 52.082 67.0796C51.613 67.0797 51.2328 67.4598 51.2328 67.9289C51.2327 68.3978 51.613 68.7781 52.082 68.7781C55.1653 68.7781 58.2042 68.2663 61.1142 67.2567C61.5573 67.1032 61.7921 66.6194 61.6384 66.1761C61.5166 65.8253 61.1878 65.6051 60.836 65.6052Z" fill="#1B1918"/>
<path fill-rule="evenodd" clip-rule="evenodd" d="M48.0052 15.8231C39.927 15.8231 32.3018 17.6729 25.3439 21.3217C13.2084 27.6929 4.17725 39.1975 0.396347 53.0305C0.206247 53.7126 -0.359359 55.0053 0.526741 55.39C1.01804 55.6028 1.56814 55.3064 1.68774 54.8152C5.11694 40.8412 14.0264 29.1814 26.1331 22.8255C32.8447 19.3061 40.2044 17.5215 48.0053 17.5215C50.455 17.5217 52.9519 17.7059 55.426 18.0695C57.0618 18.3117 58.6568 18.7228 60.1665 19.2913C60.6052 19.4559 61.0952 19.2349 61.2606 18.7957C61.4257 18.3568 61.204 17.867 60.7651 17.7016C59.1425 17.0909 57.4299 16.6493 55.6737 16.3891C53.1175 16.0136 50.5376 15.823 48.0052 15.8231Z" fill="#1B1918"/>
<path fill-rule="evenodd" clip-rule="evenodd" d="M47.6525 68.4774C47.6406 68.0163 47.2627 67.6503 46.8036 67.6503C46.7966 67.6503 46.788 67.6505 46.7809 67.6506C46.3121 67.6628 45.9415 68.0526 45.9546 68.5217C46.0885 73.7269 44.4181 78.8769 41.2507 83.0221C40.966 83.3949 41.0366 83.9278 41.4097 84.2126C41.7827 84.4973 42.3148 84.4263 42.5994 84.0534C46.0024 79.6012 47.7972 74.0694 47.6525 68.4774Z" fill="#1B1918"/>
<path fill-rule="evenodd" clip-rule="evenodd" d="M63.1623 61.8235C62.9659 61.3613 62.4251 61.1833 62.007 61.3902C58.8769 62.9115 55.5377 63.6826 52.082 63.6826C50.956 63.6827 49.8264 63.6 48.7239 63.437C48.2599 63.37 47.8283 63.6891 47.7602 64.1527C47.6908 64.6169 48.0124 65.0486 48.4764 65.1172C49.6602 65.2923 50.8731 65.381 52.082 65.381C55.7802 65.3811 59.3537 64.5596 62.704 62.9398C63.1001 62.7983 63.3556 62.2787 63.1623 61.8235Z" fill="#1B1918"/>
<path fill-rule="evenodd" clip-rule="evenodd" d="M48.0052 19.22C40.4841 19.22 33.3912 20.9398 26.9235 24.3312C12.4264 31.9395 3.07594 46.9492 1.91134 64.4823C1.88014 64.9504 2.23424 65.3548 2.70174 65.386C3.17274 65.418 3.57464 65.0629 3.60574 64.5951C4.73204 47.6563 13.7442 33.1665 27.7127 25.8352C33.9352 22.5727 40.7616 20.9183 48.0053 20.9183C50.2963 20.9184 52.6262 21.0903 54.9298 21.4292C57.3823 21.7929 59.6946 22.5923 61.8019 23.8048C62.208 24.0388 62.7276 23.8989 62.9615 23.4923C63.1954 23.0856 63.0554 22.5664 62.6489 22.3325C60.3562 21.0137 57.8429 20.1442 55.1778 19.7488C52.7916 19.3979 50.3786 19.22 48.0052 19.22Z" fill="#1B1918"/>
<path fill-rule="evenodd" clip-rule="evenodd" d="M63.2707 56.8954C63.1096 56.8954 62.9468 56.9411 62.8025 57.0369C58.7973 59.6903 54.0045 60.771 49.2213 60.0775C48.8183 60.0174 48.4118 59.9869 48.0124 59.9869C47.1575 59.9869 46.415 60.1389 45.8649 60.4269C44.1395 61.3325 42.4488 64.4336 42.5576 68.6095C42.7118 74.6565 40.1111 80.3389 35.4239 84.2003C35.0615 84.4985 35.0102 85.0338 35.3079 85.3956C35.6068 85.7578 36.1413 85.8095 36.5036 85.5113C41.5974 81.3154 44.423 75.1389 44.2556 68.5657C44.1599 64.9073 45.6007 62.4835 46.6541 61.9313C46.8286 61.8396 47.2388 61.6853 48.0124 61.6853C48.3281 61.6853 48.6498 61.7094 48.9738 61.758C54.1856 62.5136 59.3886 61.3359 63.7407 58.4526C64.1316 58.1939 64.2385 57.6668 63.9795 57.2757C63.816 57.0291 63.5461 56.8953 63.2707 56.8954Z" fill="#1B1918"/>
<path fill-rule="evenodd" clip-rule="evenodd" d="M48.0052 22.617C41.0378 22.617 34.4769 24.205 28.503 27.3375C13.6557 35.1283 4.72725 51.3151 5.20085 69.5799C5.21385 70.1308 5.25585 70.6935 5.32635 71.2992C5.35985 71.7094 5.71615 72.0748 6.17295 72.0748C6.64165 72.0749 7.02185 71.693 7.02185 71.2239C7.02175 71.1907 7.01945 71.1573 7.01585 71.1243C6.94885 70.5624 6.91185 70.0437 6.89875 69.5373C6.44185 51.923 15.0224 36.3294 29.2922 28.8415C35.0197 25.8382 41.3152 24.3153 48.0053 24.3153C50.1444 24.3153 52.3057 24.4758 54.4316 24.7922C57.5219 25.247 60.3816 26.5642 62.7011 28.602C63.0529 28.9111 63.5899 28.8762 63.8995 28.5243C64.209 28.1721 64.1743 27.6353 63.8218 27.3258C61.2558 25.0717 58.0942 23.6142 54.6802 23.112C52.4731 22.7835 50.2281 22.6169 48.0052 22.617Z" fill="#1B1918"/>
<path fill-rule="evenodd" clip-rule="evenodd" d="M63.5229 52.4082C63.3181 52.4082 63.1127 52.4819 62.9497 52.631C59.9497 55.3767 56.0902 56.8887 52.082 56.8887C51.2892 56.8888 50.4936 56.8301 49.7164 56.7144C49.1556 56.632 48.5828 56.5898 48.0124 56.5898C46.5847 56.5899 45.3304 56.8696 44.2866 57.4206C41.088 59.096 39.0302 63.6282 39.1641 68.6977C39.3362 75.4677 35.2111 81.6773 28.9 84.15C28.4635 84.3211 28.2483 84.8138 28.4193 85.2505C28.5902 85.6873 29.083 85.9017 29.5206 85.7314C36.494 82.9991 41.0521 76.1363 40.862 68.6538C40.7448 64.2163 42.4368 60.3066 45.0758 58.9241C45.8757 58.5022 46.8634 58.2883 48.0124 58.2883C48.5003 58.2884 48.9894 58.3242 49.4665 58.3945C50.3258 58.5224 51.2059 58.5871 52.082 58.5871C56.5158 58.5872 60.7827 56.9168 64.0965 53.8839C64.4425 53.5674 64.4661 53.03 64.1495 52.684C63.9819 52.501 63.7527 52.4081 63.5229 52.4082Z" fill="#1B1918"/>
<path fill-rule="evenodd" clip-rule="evenodd" d="M54.1831 26.4716C52.1239 26.1679 50.0452 26.0139 48.0053 26.0139C41.5938 26.014 35.5626 27.4718 30.079 30.3471C16.3891 37.5307 8.15784 52.5303 8.59784 69.4929C8.69934 73.4315 10.328 77.0612 13.1607 79.6916L13.2778 79.8057L13.3018 79.8171C14.5572 80.9597 15.9778 81.8571 17.5382 82.4881C17.7451 82.5721 17.9567 82.65 18.1684 82.7246L18.3118 82.7939H18.3739C19.8602 83.2978 21.4267 83.5547 23.035 83.5547C23.1497 83.5548 23.2657 83.5547 23.4069 83.5507C31.3644 83.3415 37.6706 76.6982 37.465 68.7419C37.3131 62.9514 39.6818 57.9165 43.4986 55.9146C44.5114 55.3827 45.67 55.0545 46.9423 54.9387C47.4086 54.8962 47.753 54.483 47.7111 54.0159C47.668 53.5489 47.2568 53.206 46.788 53.2471C45.2933 53.3832 43.9207 53.7748 42.7094 54.4108C38.3235 56.7107 35.5985 62.3534 35.7671 68.786C35.9488 75.8063 30.3839 81.6681 23.3638 81.853C23.2393 81.856 23.1414 81.855 23.035 81.856C21.5798 81.856 20.1653 81.6199 18.8284 81.1553C17.2297 80.3748 15.7088 79.4608 14.3062 78.4376C11.8094 76.1018 10.3854 72.9116 10.2957 69.4486C9.87354 53.138 17.7558 38.7312 30.8682 31.8509C36.1054 29.1048 41.8712 27.712 48.0053 27.712C49.9627 27.7121 51.9582 27.8598 53.9351 28.1513C57.3013 28.6485 60.2726 30.4251 62.2991 33.1514C62.4783 33.3949 62.6496 33.6437 62.808 33.8907C63.061 34.2857 63.5865 34.4009 63.9811 34.1477C64.3761 33.8946 64.4912 33.3691 64.238 32.9744C64.0599 32.6963 63.8676 32.417 63.6645 32.1413C61.3651 29.048 57.9981 27.0343 54.1831 26.4716Z" fill="#1B1918"/>
<path fill-rule="evenodd" clip-rule="evenodd" d="M63.9824 47.3323C63.8401 47.241 63.6811 47.1971 63.5239 47.1971C63.2444 47.1972 62.9711 47.3349 62.8088 47.5871C60.4665 51.2292 56.3563 53.4918 52.0821 53.4918C51.4499 53.4919 50.8211 53.4459 50.2138 53.3551C49.7498 53.2876 49.317 53.606 49.2476 54.0696C49.1794 54.5337 49.4988 54.9657 49.9627 55.035C50.653 55.138 51.3663 55.1903 52.0821 55.1903C57.0015 55.1903 61.5457 52.6914 64.2374 48.5059C64.491 48.1114 64.3769 47.5859 63.9824 47.3323Z" fill="#1B1918"/>
<path fill-rule="evenodd" clip-rule="evenodd" d="M32.3699 68.8747C32.5027 74.0241 28.4229 78.3222 23.2753 78.4562C23.1879 78.4582 23.1115 78.4592 23.035 78.4592C17.9292 78.4593 13.8255 74.4627 13.6928 69.3606C13.303 54.3541 20.4894 41.1337 32.4478 34.8587C37.1899 32.3717 42.4236 31.1109 48.0065 31.1109C49.8096 31.111 51.6377 31.2459 53.4395 31.5121C55.9071 31.8759 58.0856 33.1793 59.5737 35.182C61.0615 37.1851 61.6804 39.6477 61.3165 42.1165C60.6467 46.6653 56.6766 50.0956 52.0813 50.0956C51.6247 50.0957 51.1636 50.0616 50.71 49.9945C49.8108 49.8619 48.9033 49.7947 48.0124 49.7947C45.4799 49.7947 43.1638 50.3359 41.1299 51.4033C35.608 54.3005 32.1691 61.1584 32.3699 68.8747ZM41.919 52.9073C43.7066 51.9689 45.7573 51.4931 48.0124 51.4931C48.8208 51.4932 49.6446 51.5541 50.4619 51.6748C50.9969 51.7539 51.5417 51.794 52.0813 51.794C57.5125 51.794 62.2053 47.7399 62.9968 42.3639C63.427 39.4466 62.6955 36.5363 60.9371 34.1693C59.1784 31.8021 56.6037 30.2615 53.6875 29.8318C51.8039 29.5536 49.8921 29.4123 48.0065 29.4123C42.1462 29.4123 36.6471 30.7387 31.6597 33.3546C19.1225 39.9325 11.5883 53.746 11.9948 69.4046C12.1515 75.4345 17.0013 80.1576 23.035 80.1576C23.1246 80.1577 23.2132 80.1567 23.3184 80.1536C29.4022 79.9957 34.2247 74.9161 34.068 68.8305C33.8839 61.7561 36.9652 55.5059 41.919 52.9073Z" fill="#1B1918"/>
<path fill-rule="evenodd" clip-rule="evenodd" d="M50.9586 48.3144C51.3303 48.3692 51.7081 48.3971 52.0813 48.3971C55.8404 48.3971 59.0884 45.5902 59.6362 41.8683C59.9342 39.8486 59.4278 37.8338 58.2103 36.1952C56.9927 34.5561 55.2101 33.4898 53.1911 33.1922C51.4708 32.9382 49.7259 32.8092 48.0065 32.8092C42.701 32.8093 37.7328 34.0049 33.2381 36.3627C30.8239 37.6297 28.5748 39.219 26.5552 41.0868C26.2107 41.4054 26.1905 41.9425 26.5086 42.2868C26.8266 42.6313 27.3647 42.652 27.7091 42.3338C29.6186 40.5675 31.7446 39.0644 34.0261 37.8668C38.2757 35.6379 42.9796 34.5078 48.0065 34.5078C49.6434 34.5078 51.3044 34.6305 52.9434 34.8723C54.5137 35.104 55.9 35.9333 56.8468 37.2078C57.7938 38.4827 58.1876 40.0496 57.9561 41.6208C57.5297 44.5156 55.0043 46.6985 52.0813 46.6985C51.7907 46.6986 51.4967 46.6768 51.2067 46.634C50.1432 46.4773 49.0683 46.3977 48.0124 46.3977C44.9239 46.3978 42.0769 47.0697 39.5515 48.3952C32.8913 51.8891 28.7398 59.9626 28.9741 68.963C29.059 72.2399 26.4619 74.9751 23.1868 75.0604C23.1329 75.0614 23.084 75.0624 23.035 75.0624C19.7849 75.0625 17.1735 72.5191 17.0887 69.2723C16.8506 60.1018 19.6774 51.5268 25.0486 45.1268C25.351 44.7676 25.3033 44.2317 24.9445 43.9303C24.5845 43.6288 24.0502 43.6758 23.7476 44.0348C18.1097 50.7526 15.142 59.7311 15.3907 69.3164C15.4995 73.4911 18.8571 76.7609 23.035 76.7609C23.0971 76.7609 23.1605 76.7602 23.2299 76.7579C27.4424 76.6485 30.7809 73.132 30.6721 68.919C30.4544 60.5604 34.2497 53.0945 40.3407 49.899C42.6197 48.7027 45.2013 48.096 48.0124 48.096C48.9857 48.096 49.977 48.1696 50.9586 48.3144Z" fill="#1B1918"/>
<path fill-rule="evenodd" clip-rule="evenodd" d="M25.5782 69.0513C25.6141 70.4557 24.5021 71.628 23.0983 71.6645C21.6874 71.6978 20.5204 70.586 20.4845 69.1839C20.1628 56.7849 25.9561 45.9376 35.6056 40.875C39.3626 38.904 43.5345 37.9046 48.0065 37.9046C49.4772 37.9047 50.9716 38.0151 52.4472 38.2329C53.1202 38.3321 53.7143 38.6875 54.12 39.2337C54.5258 39.7801 54.6948 40.4517 54.5955 41.1251C54.4964 41.7986 54.1412 42.3928 53.5953 42.7987C53.1517 43.1283 52.6255 43.3015 52.082 43.3015C51.9565 43.3016 51.8299 43.2925 51.7034 43.2736C48.2468 42.7647 43.0586 42.7181 37.9732 45.3872C30.1758 49.4779 25.3104 58.7665 25.5782 69.0513ZM38.7623 46.8913C43.4436 44.4342 48.2492 44.4814 51.4554 44.9539C52.5787 45.1202 53.6983 44.8386 54.6086 44.1618C55.5185 43.4854 56.1106 42.4948 56.2759 41.3728C56.4413 40.2508 56.1599 39.1313 55.4835 38.2208C54.807 37.3105 53.8165 36.718 52.6949 36.5527C51.1378 36.3228 49.5597 36.2062 48.0065 36.2062C43.257 36.2062 38.8197 37.2708 34.8165 39.371C24.5894 44.7366 18.4482 56.1769 18.7866 69.228C18.8474 71.5651 20.8025 73.4254 23.1414 73.3623C25.4814 73.3017 27.3372 71.348 27.2762 69.0074C27.0251 59.3646 31.5342 50.6834 38.7623 46.8913Z" fill="#1B1918"/>
<path fill-rule="evenodd" clip-rule="evenodd" d="M24.0107 60.1273C23.9473 60.1129 23.8839 60.1059 23.8218 60.1059C23.4343 60.1061 23.084 60.3735 22.9943 60.7677C22.3821 63.4728 22.1083 66.2896 22.1824 69.1399C22.1943 69.6086 22.5806 69.9715 23.0529 69.9666C23.5228 69.9546 23.8923 69.5646 23.8803 69.0956C23.8097 66.3865 24.0693 63.7106 24.6516 61.1432C24.7544 60.6857 24.4675 60.2309 24.0107 60.1273Z" fill="#1B1918"/>
<path fill-rule="evenodd" clip-rule="evenodd" d="M51.9513 41.5934C52.416 41.6631 52.8471 41.3411 52.9155 40.8772C52.9839 40.413 52.6632 39.9814 52.1993 39.9132C50.9738 39.7325 49.5561 39.6035 48.0089 39.6035C44.5615 39.6035 40.465 40.2435 36.3948 42.3791C31.0881 45.163 26.8386 50.0457 24.4268 56.1282C24.2534 56.5643 24.4662 57.0578 24.9027 57.2306C25.3391 57.4039 25.8318 57.1904 26.0052 56.7542C28.2674 51.0494 32.2373 46.4783 37.184 43.8831C42.6771 41.0009 48.2456 41.0476 51.9513 41.5934Z" fill="#1B1918"/>
</svg>
