<svg width="381" height="373" viewBox="0 0 381 373" fill="none" xmlns="http://www.w3.org/2000/svg">
<path d="M192.523 239.974V26.9735M192.523 265.474C192.523 286.363 192.523 326.522 192.523 345.974M192.523 345.974C192.523 349.956 192.523 353.07 192.523 354.974C192.523 366.173 203.19 365.974 208.523 364.474C256.856 356.14 356.323 338.474 363.523 334.474C370.723 330.473 372.023 324.307 372.523 320.974C372.523 235.807 372.523 61.4735 372.523 51.4735C372.523 41.4735 362.523 37.6402 357.523 36.9735C313.523 28.1402 222.023 11.2735 208.023 8.47352C194.023 5.67352 191.856 15.9735 192.523 21.4735V26.9735M192.523 345.974H113.023C110.523 346.64 105.523 345.274 105.523 334.474C105.523 323.674 105.523 273.307 105.523 249.474V245.474M100.023 128.474C119.523 143.474 156.723 173.374 161.523 178.974C166.323 184.574 163.523 190.307 161.523 192.474L105.523 241.474V245.474M100.023 128.474C97.8564 128.307 92.1231 127.974 90.5231 133.974V152.474L54.5231 152.974M100.023 128.474L106.523 123.474V42.9735C106.523 41.6402 106.923 37.8735 108.523 33.4735C110.123 29.0735 115.19 27.3069 117.523 26.9735H192.523M105.523 245.474C101.023 246.974 91.3231 247.974 88.5231 239.974C88.5231 230.374 88.5231 223.307 88.5231 220.974H15.0231C12.5231 220.974 7.62307 219.274 8.02307 212.474C8.42307 205.674 8.18974 174.307 8.02307 159.474C8.02307 157.974 9.22307 153.974 14.0231 153.974C18.8231 153.974 29.3564 154.974 34.0231 154.974M243.523 165.974C237.523 165.974 225.023 164.074 225.023 174.474C225.023 184.874 225.023 200.474 225.023 200.474C225.523 208.974 231.623 207.374 244.023 206.974" stroke="url(#paint0_linear)" stroke-width="15"/>
<defs>
<linearGradient id="paint0_linear" x1="190.262" y1="8" x2="190.262" y2="365.206" gradientUnits="userSpaceOnUse">
<stop stop-color="#5EFCE8"/>
<stop offset="1" stop-color="#736EFE"/>
</linearGradient>
</defs>
</svg>
